<svg width="118" height="39" viewBox="0 0 118 39" fill="none" xmlns="http://www.w3.org/2000/svg">
<g clip-path="url(#clip0_1_35)">
<path d="M7.57182 38.25C7.26714 38.25 6.96982 38.2461 6.66753 38.2393C6.04131 38.2311 5.41656 38.1766 4.79839 38.0762C4.22198 37.9769 3.66359 37.7923 3.14165 37.5283C2.62449 37.2665 2.1528 36.9233 1.74465 36.5117C1.33059 36.105 0.985867 35.6332 0.72414 35.1152C0.459529 34.5938 0.276403 34.0349 0.18114 33.458C0.0782644 32.8381 0.0226044 32.2113 0.01464 31.583C0.0083 31.3721 0 30.6699 0 30.6699V7.56934C0 7.56934 0.00884 6.87793 0.01469 6.6748C0.0223158 6.04748 0.0776521 5.42165 0.18022 4.80273C0.275659 4.22425 0.458927 3.66375 0.72368 3.14063C0.984445 2.62294 1.32725 2.15086 1.73882 1.74268C2.14992 1.33062 2.62312 0.985604 3.14116 0.72021C3.6619 0.457094 4.21924 0.273733 4.79448 0.17627C5.41468 0.0748361 6.0416 0.0199961 6.66999 0.01221L7.57231 0H110.341L111.254 0.0127C111.877 0.0200992 112.498 0.07445 113.112 0.17529C113.693 0.273975 114.257 0.458616 114.783 0.72314C115.821 1.25799 116.666 2.10416 117.198 3.14307C117.459 3.66258 117.639 4.21851 117.733 4.79199C117.837 5.41599 117.895 6.04674 117.907 6.6792C117.91 6.9624 117.91 7.2666 117.91 7.56934C117.918 7.94434 117.918 8.30127 117.918 8.66113V29.5898C117.918 29.9531 117.918 30.3076 117.91 30.665C117.91 30.9902 117.91 31.2881 117.906 31.5947C117.895 32.2159 117.837 32.8354 117.735 33.4482C117.642 34.0293 117.46 34.5925 117.195 35.1182C116.932 35.6306 116.589 36.0983 116.18 36.5039C115.771 36.9177 115.299 37.2629 114.78 37.5264C114.255 37.7924 113.693 37.9777 113.112 38.0762C112.494 38.1772 111.869 38.2317 111.243 38.2393C110.95 38.2461 110.644 38.25 110.346 38.25L109.262 38.252L7.57182 38.25Z" fill="black"/>
<path d="M23.8959 19.4257C23.9177 17.7292 24.8071 16.1622 26.2524 15.2736C25.3365 13.9655 23.8574 13.1659 22.2613 13.1159C20.582 12.9397 18.9541 14.1208 18.0984 14.1208C17.2261 14.1208 15.9086 13.1334 14.4899 13.1626C12.6232 13.2229 10.9251 14.2585 10.0169 15.8905C8.08295 19.2389 9.52554 24.16 11.3781 26.8666C12.305 28.1919 13.3883 29.6724 14.8058 29.6199C16.1928 29.5624 16.7109 28.7354 18.3852 28.7354C20.0439 28.7354 20.53 29.6199 21.9762 29.5865C23.4646 29.5623 24.4023 28.2553 25.2967 26.9174C25.9627 25.973 26.4751 24.9293 26.8151 23.8248C25.0474 23.0772 23.8979 21.345 23.8959 19.4257Z" fill="white"/>
<path d="M21.1642 11.3359C21.9758 10.3617 22.3756 9.1095 22.2788 7.84527C21.0389 7.97549 19.8937 8.56805 19.0712 9.50488C18.259 10.4292 17.8476 11.6384 17.9275 12.8663C19.1839 12.8792 20.3769 12.3152 21.1642 11.3359Z" fill="white"/>
<path d="M41.4293 26.2647H36.6959L35.5591 29.6211H33.5543L38.0377 17.2031H40.1207L44.6041 29.6211H42.565L41.4293 26.2647ZM37.1861 24.7158H40.9381L39.0885 19.2686H39.0367L37.1861 24.7158Z" fill="white"/>
<path d="M54.2867 25.0947C54.2867 27.9082 52.7808 29.7158 50.5084 29.7158C49.3337 29.7773 48.2273 29.162 47.6597 28.1318H47.6167V32.6162H45.7583V20.5674H47.5572V22.0732H47.5914C48.1842 21.0495 49.2918 20.4345 50.4742 20.4727C52.772 20.4727 54.2867 22.2891 54.2867 25.0947ZM52.3765 25.0947C52.3765 23.2617 51.4293 22.0566 49.9839 22.0566C48.564 22.0566 47.6089 23.2871 47.6089 25.0947C47.6089 26.919 48.564 28.1406 49.9839 28.1406C51.4293 28.1406 52.3765 26.9443 52.3765 25.0947Z" fill="white"/>
<path d="M64.2515 25.0947C64.2515 27.9082 62.7457 29.7158 60.4732 29.7158C59.2986 29.7773 58.1922 29.162 57.6246 28.1318H57.5816V32.6162H55.7232V20.5674H57.522V22.0732H57.5562C58.149 21.0495 59.2566 20.4345 60.439 20.4727C62.7369 20.4727 64.2515 22.2891 64.2515 25.0947ZM62.3414 25.0947C62.3414 23.2617 61.3941 22.0566 59.9488 22.0566C58.5289 22.0566 57.5738 23.2871 57.5738 25.0947C57.5738 26.919 58.5289 28.1406 59.9488 28.1406C61.3941 28.1406 62.3414 26.9443 62.3414 25.0947Z" fill="white"/>
<path d="M70.8375 26.1611C70.9752 27.3926 72.1715 28.2011 73.8062 28.2011C75.3726 28.2011 76.4996 27.3925 76.4996 26.2822C76.4996 25.3183 75.8199 24.7412 74.2105 24.3457L72.6011 23.958C70.3209 23.4072 69.2623 22.3408 69.2623 20.6103C69.2623 18.4677 71.1295 16.996 73.7808 16.996C76.4048 16.996 78.2037 18.4677 78.2642 20.6103H76.3882C76.2759 19.371 75.2515 18.623 73.7544 18.623C72.2574 18.623 71.233 19.3798 71.233 20.4814C71.233 21.3593 71.8873 21.8759 73.4878 22.2714L74.856 22.6073C77.4038 23.2099 78.4624 24.2333 78.4624 26.0497C78.4624 28.373 76.6119 29.828 73.6685 29.828C70.9146 29.828 69.0552 28.4071 68.9351 26.161L70.8375 26.1611Z" fill="white"/>
<path d="M82.4732 18.4248V20.5674H84.1949V22.0391H82.4732V27.0303C82.4732 27.8057 82.8179 28.167 83.5748 28.167C83.7792 28.1634 83.9832 28.1491 84.1861 28.124V29.5869C83.8458 29.6505 83.5 29.6793 83.1539 29.6728C81.3209 29.6728 80.606 28.9843 80.606 27.2285V22.0391H79.2896V20.5674H80.606V18.4248H82.4732Z" fill="white"/>
<path d="M85.192 25.0947C85.192 22.2461 86.8697 20.4561 89.4859 20.4561C92.1109 20.4561 93.7809 22.2461 93.7809 25.0947C93.7809 27.9512 92.1197 29.7334 89.4859 29.7334C86.8531 29.7334 85.192 27.9512 85.192 25.0947ZM91.8873 25.0947C91.8873 23.1406 90.9918 21.9873 89.4859 21.9873C87.9801 21.9873 87.0855 23.1494 87.0855 25.0947C87.0855 27.0566 87.9801 28.2012 89.4859 28.2012C90.9918 28.2012 91.8873 27.0566 91.8873 25.0947Z" fill="white"/>
<path d="M95.313 20.5674H97.0855V22.1084H97.1285C97.3757 21.1164 98.2846 20.4336 99.3062 20.4726C99.5204 20.4719 99.734 20.4952 99.943 20.542V22.2803C99.6726 22.1976 99.3906 22.1597 99.108 22.168C98.5616 22.1458 98.0329 22.3635 97.6606 22.764C97.2882 23.1645 97.1096 23.7077 97.1714 24.251V29.6211H95.313V20.5674Z" fill="white"/>
<path d="M108.511 26.9619C108.261 28.6055 106.661 29.7334 104.613 29.7334C101.979 29.7334 100.344 27.9687 100.344 25.1377C100.344 22.2979 101.988 20.4561 104.535 20.4561C107.04 20.4561 108.615 22.1768 108.615 24.9219V25.5586H102.22V25.6709C102.161 26.3449 102.393 27.0121 102.859 27.5028C103.325 27.9934 103.98 28.2602 104.656 28.2353C105.558 28.3198 106.408 27.802 106.747 26.9619L108.511 26.9619ZM102.229 24.2598H106.755C106.789 23.6541 106.569 23.0618 106.147 22.6256C105.726 22.1894 105.141 21.9489 104.535 21.9619C103.923 21.9583 103.336 22.1989 102.903 22.6304C102.47 23.0619 102.227 23.6485 102.229 24.2598Z" fill="white"/>
<path d="M36.9532 7.856C37.7421 7.79938 38.5149 8.09955 39.0588 8.67387C39.6026 9.2482 39.8603 10.0361 39.7608 10.8208C39.7608 12.7271 38.7305 13.8228 36.9532 13.8228H34.7979V7.856H36.9532ZM35.7247 12.979H36.8497C37.4135 13.0127 37.9625 12.7906 38.3442 12.3743C38.7259 11.9579 38.8998 11.3918 38.8174 10.833C38.8938 10.2765 38.7174 9.71505 38.3367 9.30213C37.9559 8.88922 37.4105 8.66809 36.8497 8.69921H35.7247V12.979Z" fill="white"/>
<path d="M40.8077 11.5693C40.7305 10.7622 41.1175 9.98111 41.8064 9.5536C42.4953 9.12608 43.3671 9.12608 44.056 9.5536C44.7449 9.98111 45.132 10.7622 45.0547 11.5693C45.1334 12.3773 44.7468 13.16 44.0572 13.5884C43.3677 14.0168 42.4947 14.0168 41.8052 13.5884C41.1157 13.16 40.729 12.3773 40.8077 11.5693ZM44.1407 11.5693C44.1407 10.5933 43.7022 10.0225 42.9327 10.0225C42.1602 10.0225 41.7257 10.5933 41.7257 11.5694C41.7257 12.5532 42.1602 13.1196 42.9327 13.1196C43.7022 13.1196 44.1407 12.5493 44.1407 11.5693Z" fill="white"/>
<path d="M50.7002 13.8228H49.7784L48.8477 10.5063H48.7774L47.8506 13.8228H46.9376L45.6963 9.31982H46.5977L47.4044 12.7558H47.4708L48.3965 9.31982H49.2491L50.1749 12.7558H50.2452L51.0479 9.31982H51.9366L50.7002 13.8228Z" fill="white"/>
<path d="M52.9805 9.31982H53.836V10.0352H53.9024C54.1333 9.50848 54.673 9.18631 55.2461 9.2329C55.69 9.19953 56.1249 9.36979 56.4281 9.6956C56.7313 10.0214 56.8699 10.4674 56.8047 10.9077V13.8227H55.9161V11.1309C55.9161 10.4072 55.6016 10.0474 54.9444 10.0474C54.6434 10.0333 54.3512 10.1515 54.1445 10.3708C53.9379 10.5902 53.8373 10.8888 53.8692 11.1885V13.8228H52.9805V9.31982Z" fill="white"/>
<path d="M58.2208 7.562H59.1094V13.8227H58.2208V7.562Z" fill="white"/>
<path d="M60.3448 11.5693C60.2676 10.7622 60.6547 9.98104 61.3437 9.55352C62.0327 9.126 62.9044 9.126 63.5934 9.55352C64.2824 9.98104 64.6695 10.7622 64.5923 11.5693C64.6709 12.3774 64.2842 13.16 63.5946 13.5884C62.905 14.0168 62.0321 14.0168 61.3425 13.5884C60.6529 13.16 60.2662 12.3774 60.3448 11.5693ZM63.6778 11.5693C63.6778 10.5933 63.2393 10.0225 62.4698 10.0225C61.6973 10.0225 61.2628 10.5933 61.2628 11.5694C61.2628 12.5532 61.6973 13.1196 62.4698 13.1196C63.2393 13.1196 63.6778 12.5493 63.6778 11.5693Z" fill="white"/>
<path d="M65.5279 12.5493C65.5279 11.7388 66.1314 11.2715 67.2027 11.2051L68.4224 11.1348V10.7461C68.4224 10.2705 68.108 10.002 67.5005 10.002C67.0045 10.002 66.6607 10.1841 66.5621 10.5025H65.7017C65.7925 9.72901 66.5201 9.23292 67.5416 9.23292C68.6705 9.23292 69.3072 9.79492 69.3072 10.7461V13.8228H68.4517V13.19H68.3814C68.0909 13.6521 67.5742 13.9222 67.0289 13.897C66.6466 13.9367 66.2654 13.8129 65.9794 13.5562C65.6934 13.2994 65.5294 12.9336 65.5279 12.5493ZM68.4224 12.1646V11.7881L67.3228 11.8584C66.7027 11.8999 66.4214 12.1108 66.4214 12.5078C66.4214 12.9131 66.773 13.1489 67.2564 13.1489C67.5426 13.1779 67.8283 13.0895 68.0481 12.9039C68.2679 12.7184 68.403 12.4515 68.4224 12.1646Z" fill="white"/>
<path d="M70.4751 11.5693C70.4751 10.1465 71.2066 9.24512 72.3443 9.24512C72.9188 9.21865 73.4568 9.52647 73.7251 10.0351H73.7916V7.562H74.6802V13.8227H73.8287V13.1113H73.7584C73.4697 13.6157 72.9251 13.9184 72.3443 13.897C71.1988 13.897 70.4751 12.9956 70.4751 11.5693ZM71.3932 11.5693C71.3932 12.5244 71.8433 13.0991 72.5963 13.0991C73.3453 13.0991 73.8082 12.5161 73.8082 11.5733C73.8082 10.6348 73.3404 10.0435 72.5963 10.0435C71.8482 10.0435 71.3931 10.6221 71.3931 11.5693H71.3932Z" fill="white"/>
<path d="M78.357 11.5693C78.2798 10.7622 78.6668 9.98111 79.3557 9.5536C80.0447 9.12608 80.9164 9.12608 81.6053 9.5536C82.2943 9.98111 82.6813 10.7622 82.6041 11.5693C82.6827 12.3773 82.2961 13.16 81.6065 13.5884C80.917 14.0168 80.0441 14.0168 79.3545 13.5884C78.665 13.16 78.2783 12.3773 78.357 11.5693ZM81.69 11.5693C81.69 10.5933 81.2515 10.0225 80.482 10.0225C79.7095 10.0225 79.275 10.5933 79.275 11.5694C79.275 12.5532 79.7096 13.1196 80.482 13.1196C81.2515 13.1196 81.69 12.5493 81.69 11.5693Z" fill="white"/>
<path d="M83.7964 9.31982H84.6519V10.0352H84.7183C84.9493 9.50848 85.4889 9.18631 86.0621 9.2329C86.5059 9.19953 86.9408 9.36979 87.244 9.6956C87.5472 10.0214 87.6858 10.4674 87.6207 10.9077V13.8227H86.732V11.1309C86.732 10.4072 86.4175 10.0474 85.7603 10.0474C85.4593 10.0333 85.1671 10.1515 84.9605 10.3708C84.7538 10.5902 84.6532 10.8888 84.6851 11.1885V13.8228H83.7964V9.31982Z" fill="white"/>
<path d="M92.6421 8.19873V9.34033H93.6177V10.0889H92.6421V12.4043C92.6421 12.876 92.8365 13.0825 93.2789 13.0825C93.3921 13.0822 93.5053 13.0753 93.6177 13.062V13.8022C93.4582 13.8308 93.2965 13.846 93.1343 13.8477C92.1461 13.8477 91.7525 13.5 91.7525 12.6318V10.0888H91.0377V9.34029H91.7525V8.19873H92.6421Z" fill="white"/>
<path d="M94.8316 7.562H95.7125V10.0435H95.7828C96.0248 9.51217 96.5739 9.18959 97.1558 9.23681C97.5971 9.2128 98.0261 9.3868 98.326 9.71143C98.6259 10.0361 98.7654 10.4775 98.7066 10.9155V13.8228H97.817V11.1348C97.817 10.4155 97.482 10.0513 96.8541 10.0513C96.5449 10.0259 96.2403 10.1383 96.0217 10.3584C95.8031 10.5785 95.6928 10.8839 95.7203 11.1929V13.8228H94.8316L94.8316 7.562Z" fill="white"/>
<path d="M103.888 12.6069C103.639 13.4563 102.817 14.0051 101.937 13.9097C101.337 13.9255 100.76 13.6766 100.359 13.2291C99.9585 12.7815 99.7749 12.1805 99.857 11.5855C99.7771 10.9888 99.9599 10.3868 100.358 9.93545C100.757 9.48409 101.331 9.22778 101.933 9.23291C103.186 9.23291 103.942 10.0889 103.942 11.5029V11.813H100.762V11.8628C100.734 12.1969 100.848 12.5274 101.077 12.773C101.305 13.0186 101.626 13.1565 101.961 13.1528C102.396 13.205 102.819 12.9893 103.033 12.6069L103.888 12.6069ZM100.762 11.1558H103.037C103.059 10.8502 102.952 10.5492 102.741 10.3271C102.53 10.1049 102.235 9.98224 101.928 9.98926C101.618 9.98536 101.319 10.107 101.099 10.3266C100.88 10.5463 100.758 10.8453 100.762 11.1558H100.762Z" fill="white"/>
</g>
<defs>
<clipPath id="clip0_1_35">
<rect width="118" height="39" fill="white"/>
</clipPath>
</defs>
</svg>
