<svg width="118" height="39" viewBox="0 0 118 39" fill="none" xmlns="http://www.w3.org/2000/svg">
<rect x="0.5" y="0.5" width="117" height="38" rx="6.5" fill="white"/>
<path d="M36.1499 13.1453C37.3245 13.1453 38.0176 12.4521 38.0176 11.2734V7.01099H37.0879V11.2651C37.0879 11.9458 36.7559 12.3152 36.1416 12.3152C35.5854 12.3152 35.2991 11.9583 35.2617 11.5017L35.2576 11.4644H34.3403L34.3445 11.5142C34.3943 12.4688 35.0417 13.1453 36.1499 13.1453ZM41.2798 13.0872C42.5996 13.0872 43.4089 12.2031 43.4089 10.7505V10.7422C43.4089 9.28955 42.5955 8.40552 41.2798 8.40552C39.96 8.40552 39.1465 9.2937 39.1465 10.7422V10.7505C39.1465 12.2031 39.9558 13.0872 41.2798 13.0872ZM41.2798 12.3359C40.5037 12.3359 40.0679 11.7507 40.0679 10.7505V10.7422C40.0679 9.74194 40.5037 9.15674 41.2798 9.15674C42.0518 9.15674 42.4917 9.74194 42.4917 10.7422V10.7505C42.4917 11.7466 42.0518 12.3359 41.2798 12.3359ZM44.9529 7.6875C45.26 7.6875 45.5173 7.43433 45.5173 7.1272C45.5173 6.81592 45.26 6.56274 44.9529 6.56274C44.6416 6.56274 44.3884 6.81592 44.3884 7.1272C44.3884 7.43433 44.6416 7.6875 44.9529 7.6875ZM44.5005 13H45.397V8.49268H44.5005V13ZM46.7085 13H47.6091V10.3562C47.6091 9.62988 48.02 9.17749 48.6799 9.17749C49.3398 9.17749 49.6511 9.54688 49.6511 10.2939V13H50.5476V10.0823C50.5476 9.00732 49.9915 8.40552 48.9829 8.40552C48.3271 8.40552 47.8955 8.69604 47.6755 9.17749H47.6091V8.49268H46.7085V13ZM55.8311 13.0291C56.0054 13.0291 56.1714 13.0083 56.3167 12.9834V12.2654C56.1921 12.2778 56.1133 12.282 55.9763 12.282C55.5322 12.282 55.3496 12.0828 55.3496 11.5972V9.20239H56.3167V8.49268H55.3496V7.35547H54.4324V8.49268H53.7268V9.20239H54.4324V11.813C54.4324 12.6804 54.8391 13.0291 55.8311 13.0291ZM57.4082 13H58.3088V10.3562C58.3088 9.62988 58.7197 9.17749 59.3796 9.17749C60.0396 9.17749 60.3508 9.54688 60.3508 10.2939V13H61.2473V10.0823C61.2473 9.00732 60.6912 8.40552 59.6826 8.40552C59.0269 8.40552 58.5952 8.69604 58.3752 9.17749H58.3088V6.72461H57.4082V13ZM64.3975 13.0872C65.5513 13.0872 66.1738 12.4231 66.3232 11.8296L66.3315 11.7922L65.4641 11.7964L65.4475 11.8296C65.3396 12.062 64.9951 12.3484 64.4182 12.3484C63.6753 12.3484 63.2021 11.8462 63.1855 10.9829H66.3813V10.6675C66.3813 9.31445 65.6094 8.40552 64.3518 8.40552C63.0942 8.40552 62.2808 9.34766 62.2808 10.7546V10.7588C62.2808 12.1865 63.0776 13.0872 64.3975 13.0872ZM64.356 9.14429C64.9661 9.14429 65.4185 9.53442 65.489 10.3396H63.198C63.2769 9.56348 63.7417 9.14429 64.356 9.14429Z" fill="black"/>
<path d="M35.6328 31H40.4663C41.7961 31 42.931 30.7371 43.8711 30.2114C44.8112 29.6795 45.5286 28.9126 46.0234 27.9106C46.5244 26.9087 46.7749 25.6995 46.7749 24.2832V24.2646C46.7749 22.8607 46.5244 21.6639 46.0234 20.6743C45.5225 19.6847 44.8019 18.9271 43.8618 18.4014C42.9217 17.8757 41.7899 17.6128 40.4663 17.6128H35.6328V31ZM37.7202 29.2002V19.4126H40.2344C41.1621 19.4126 41.9538 19.6043 42.6094 19.9878C43.2712 20.3713 43.7752 20.9279 44.1216 21.6577C44.4679 22.3813 44.6411 23.2596 44.6411 24.2925V24.311C44.6411 25.3439 44.4679 26.2253 44.1216 26.9551C43.7814 27.6849 43.2804 28.2415 42.6187 28.625C41.9631 29.0085 41.1683 29.2002 40.2344 29.2002H37.7202ZM49.3169 31H51.3394V20.9526H49.3169V31ZM50.3374 19.1807C50.6838 19.1807 50.9775 19.0601 51.2188 18.8188C51.4661 18.5715 51.5898 18.2746 51.5898 17.9282C51.5898 17.5819 51.4661 17.2881 51.2188 17.0469C50.9775 16.8057 50.6838 16.6851 50.3374 16.6851C49.991 16.6851 49.6942 16.8057 49.4468 17.0469C49.1994 17.2881 49.0757 17.5819 49.0757 17.9282C49.0757 18.2746 49.1994 18.5715 49.4468 18.8188C49.6942 19.0601 49.991 19.1807 50.3374 19.1807ZM57.8428 31.1948C58.6468 31.1948 59.3612 31.0649 59.9858 30.8052C60.6105 30.5392 61.1022 30.1712 61.4609 29.7012C61.8258 29.2311 62.0083 28.6868 62.0083 28.0684V28.0498C62.0083 27.3262 61.7733 26.7479 61.3032 26.3149C60.8394 25.882 60.1219 25.5511 59.1509 25.3223L57.5552 24.9604C57.1841 24.8677 56.881 24.7625 56.646 24.645C56.4172 24.5213 56.2471 24.3822 56.1357 24.2275C56.0306 24.0667 55.978 23.8843 55.978 23.6802V23.6616C55.978 23.3895 56.0584 23.1545 56.2192 22.9565C56.38 22.7524 56.6027 22.5947 56.8872 22.4834C57.1717 22.3659 57.4964 22.3071 57.8613 22.3071C58.4303 22.3071 58.888 22.4277 59.2344 22.6689C59.5807 22.904 59.7972 23.2039 59.8838 23.5688L59.8931 23.5874H61.8135V23.5596C61.7578 23.0153 61.563 22.5329 61.229 22.1123C60.895 21.6855 60.4435 21.3547 59.8745 21.1196C59.3055 20.8784 58.6344 20.7578 57.8613 20.7578C57.1068 20.7578 56.4357 20.8877 55.8481 21.1475C55.2606 21.401 54.7998 21.7536 54.4658 22.2051C54.1318 22.6566 53.9648 23.1792 53.9648 23.7729V23.7822C53.9648 24.2646 54.0638 24.6883 54.2617 25.0532C54.4658 25.4119 54.772 25.715 55.1802 25.9624C55.5946 26.2098 56.1172 26.4046 56.748 26.5469L58.353 26.918C58.9344 27.054 59.3488 27.2303 59.5962 27.4468C59.8436 27.6571 59.9673 27.9199 59.9673 28.2354V28.2539C59.9673 28.526 59.8776 28.7673 59.6982 28.9775C59.5251 29.1816 59.2839 29.3424 58.9746 29.46C58.6654 29.5775 58.3035 29.6362 57.8892 29.6362C57.2892 29.6362 56.8068 29.5187 56.4419 29.2837C56.0832 29.0487 55.8389 28.7363 55.709 28.3467V28.3281H53.6865V28.3467C53.7546 28.9157 53.9618 29.4136 54.3081 29.8403C54.6606 30.2671 55.1369 30.6011 55.7368 30.8423C56.3368 31.0773 57.0387 31.1948 57.8428 31.1948ZM68.5674 31.1948C69.4023 31.1948 70.1167 31.0557 70.7104 30.7773C71.3104 30.4928 71.7897 30.1001 72.1484 29.5991C72.5072 29.0981 72.7453 28.5229 72.8628 27.8735L72.8721 27.79L70.9424 27.7993L70.9238 27.8457C70.7692 28.3838 70.494 28.7951 70.0981 29.0796C69.7085 29.3641 69.1982 29.5063 68.5674 29.5063C68.0169 29.5063 67.5407 29.3641 67.1387 29.0796C66.7428 28.7951 66.4367 28.3869 66.2202 27.855C66.0037 27.3231 65.8955 26.6891 65.8955 25.9531V25.9346C65.8955 25.2109 66.0007 24.5894 66.2109 24.0698C66.4274 23.5441 66.7336 23.1421 67.1294 22.8638C67.5314 22.5854 68.0107 22.4463 68.5674 22.4463C69.2354 22.4463 69.7673 22.6102 70.1631 22.938C70.5651 23.2658 70.8218 23.6771 70.9331 24.1719L70.9424 24.1997H72.8813L72.8721 24.1533C72.7855 23.5039 72.5597 22.9256 72.1948 22.4185C71.8361 21.9051 71.3506 21.5 70.7383 21.2031C70.1322 20.9062 69.4054 20.7578 68.5581 20.7578C67.5809 20.7578 66.7397 20.9681 66.0347 21.3887C65.3296 21.8092 64.7853 22.4061 64.4019 23.1792C64.0246 23.9523 63.8359 24.8708 63.8359 25.9346V25.9531C63.8359 27.0355 64.0277 27.9694 64.4111 28.7549C64.7946 29.5342 65.3389 30.1372 66.0439 30.564C66.749 30.9845 67.5902 31.1948 68.5674 31.1948ZM79.3384 31.1948C80.3218 31.1948 81.166 30.9845 81.8711 30.564C82.5824 30.1434 83.1297 29.5435 83.5132 28.7642C83.8966 27.9849 84.0884 27.0571 84.0884 25.981V25.9624C84.0884 24.8862 83.8936 23.9585 83.5039 23.1792C83.1204 22.3999 82.5731 21.8031 81.8618 21.3887C81.1567 20.9681 80.3156 20.7578 79.3384 20.7578C78.3612 20.7578 77.5169 20.9681 76.8057 21.3887C76.0944 21.8031 75.5439 22.3999 75.1543 23.1792C74.7708 23.9585 74.5791 24.8862 74.5791 25.9624V25.981C74.5791 27.0571 74.7708 27.9849 75.1543 28.7642C75.5439 29.5435 76.0944 30.1434 76.8057 30.564C77.5169 30.9845 78.3612 31.1948 79.3384 31.1948ZM79.3384 29.5063C78.7694 29.5063 78.2839 29.3672 77.8818 29.0889C77.4798 28.8105 77.1706 28.4085 76.9541 27.8828C76.7438 27.3571 76.6387 26.7231 76.6387 25.981V25.9624C76.6387 25.2202 76.7438 24.5894 76.9541 24.0698C77.1706 23.5441 77.4798 23.1421 77.8818 22.8638C78.2839 22.5854 78.7694 22.4463 79.3384 22.4463C79.9074 22.4463 80.3898 22.5854 80.7856 22.8638C81.1877 23.1421 81.4938 23.5441 81.7041 24.0698C81.9206 24.5894 82.0288 25.2202 82.0288 25.9624V25.981C82.0288 26.7231 81.9206 27.3571 81.7041 27.8828C81.4938 28.4085 81.1877 28.8105 80.7856 29.0889C80.3898 29.3672 79.9074 29.5063 79.3384 29.5063ZM86.417 31H88.4302V24.9976C88.4302 24.509 88.5353 24.0884 88.7456 23.7358C88.9621 23.3771 89.259 23.1019 89.6362 22.9102C90.0197 22.7122 90.465 22.6133 90.9722 22.6133C91.1639 22.6133 91.3464 22.6226 91.5195 22.6411C91.6989 22.6597 91.8721 22.6875 92.0391 22.7246V20.8691C91.9401 20.8444 91.8102 20.8228 91.6494 20.8042C91.4948 20.7856 91.3371 20.7764 91.1763 20.7764C90.5145 20.7764 89.9578 20.9279 89.5063 21.231C89.061 21.5278 88.7518 21.9453 88.5786 22.4834H88.4302V20.9526H86.417V31ZM97.2993 31.1763C97.7694 31.1763 98.2023 31.1051 98.5981 30.9629C98.994 30.8206 99.3434 30.6196 99.6465 30.3599C99.9495 30.0939 100.2 29.7754 100.398 29.4043H100.537V31H102.56V17.0283H100.537V22.5576H100.398C100.219 22.1865 99.9743 21.8711 99.665 21.6113C99.3558 21.3454 99.0002 21.1413 98.5981 20.999C98.1961 20.8506 97.7632 20.7764 97.2993 20.7764C96.452 20.7764 95.716 20.9897 95.0913 21.4165C94.4666 21.8371 93.9842 22.437 93.644 23.2163C93.3039 23.9894 93.1338 24.9048 93.1338 25.9624V25.981C93.1338 27.0386 93.3039 27.957 93.644 28.7363C93.9904 29.5094 94.4759 30.1094 95.1006 30.5361C95.7253 30.9629 96.4582 31.1763 97.2993 31.1763ZM97.8745 29.4414C97.3179 29.4414 96.8385 29.3053 96.4365 29.0332C96.0345 28.7549 95.7253 28.356 95.5088 27.8364C95.2985 27.3169 95.1934 26.6984 95.1934 25.981V25.9624C95.1934 25.245 95.2985 24.6296 95.5088 24.1162C95.7253 23.5967 96.0345 23.1978 96.4365 22.9194C96.8385 22.6411 97.3179 22.502 97.8745 22.502C98.425 22.502 98.9012 22.6442 99.3032 22.9287C99.7114 23.207 100.024 23.606 100.24 24.1255C100.463 24.6388 100.574 25.2542 100.574 25.9717V25.981C100.574 26.6922 100.463 27.3076 100.24 27.8271C100.024 28.3467 99.7114 28.7456 99.3032 29.0239C98.9012 29.3022 98.425 29.4414 97.8745 29.4414Z" fill="black"/>
<path d="M26.0692 12.3829C24.6884 11.7369 23.212 11.2673 21.6685 11C21.4789 11.3427 21.2575 11.8037 21.1048 12.1704C19.464 11.9236 17.8382 11.9236 16.2276 12.1704C16.0749 11.8037 15.8484 11.3427 15.6572 11C14.112 11.2673 12.6339 11.7386 11.2531 12.3863C8.46807 16.5949 7.71309 20.6989 8.09058 24.7447C9.93777 26.1241 11.7279 26.9621 13.4878 27.5104C13.9224 26.9123 14.3099 26.2766 14.6438 25.6066C14.0079 25.365 13.3989 25.0668 12.8235 24.7207C12.9761 24.6076 13.1255 24.4893 13.2697 24.3677C16.7796 26.0093 20.5931 26.0093 24.0609 24.3677C24.2069 24.4893 24.3562 24.6076 24.5072 24.7207C23.9301 25.0685 23.3194 25.3667 22.6835 25.6083C23.0174 26.2766 23.4033 26.9141 23.8395 27.5121C25.6011 26.9637 27.3929 26.1258 29.2401 24.7447C29.683 20.0546 28.4835 15.9883 26.0692 12.3829ZM15.122 22.2566C14.0684 22.2566 13.2043 21.2729 13.2043 20.0751C13.2043 18.8774 14.0499 17.8921 15.122 17.8921C16.1941 17.8921 17.0581 18.8756 17.0396 20.0751C17.0413 21.2729 16.1941 22.2566 15.122 22.2566ZM22.2087 22.2566C21.1551 22.2566 20.2911 21.2729 20.2911 20.0751C20.2911 18.8774 21.1366 17.8921 22.2087 17.8921C23.2808 17.8921 24.1448 18.8756 24.1264 20.0751C24.1264 21.2729 23.2808 22.2566 22.2087 22.2566Z" fill="black"/>
<rect x="0.5" y="0.5" width="117" height="38" rx="6.5" stroke="black"/>
</svg>
