<?xml version="1.0" encoding="UTF-8"?>
<svg width="118px" height="39px" viewBox="0 0 118 39" version="1.1" xmlns="http://www.w3.org/2000/svg" xmlns:xlink="http://www.w3.org/1999/xlink">
    <title>Discord</title>
    <g id="Page-1" stroke="none" stroke-width="1" fill="none" fill-rule="evenodd">
        <g id="Discord" transform="translate(-0.000000, -0.000000)" fill-rule="nonzero">
            <g id="Group">
                <g id="Path" fill="#000000">
                    <path d="M7.57182,38.25 C7.26714,38.25 6.96982,38.2461 6.66753,38.2393 C6.04131177,38.2311407 5.41655717,38.176625 4.79839,38.0762 C4.2219803,37.9769282 3.66359424,37.7922645 3.14165,37.5283 C2.6244917,37.2665227 2.15280177,36.9232729 1.74465,36.5117 C1.33059033,36.1049753 0.985866734,35.633244 0.72414,35.1152 C0.45952926,34.5937891 0.276402881,34.0348996 0.18114,33.458 C0.0782643583,32.8381149 0.0226043736,32.2113132 0.01464,31.583 C0.0083,31.3721 -1.77635684e-15,30.6699 -1.77635684e-15,30.6699 L-1.77635684e-15,7.56934 C-1.77635684e-15,7.56934 0.00884,6.87793 0.01469,6.6748 C0.0223158267,6.04748205 0.0776521477,5.4216531 0.18022,4.80273 C0.275658723,4.22425008 0.458926872,3.66374887 0.72368,3.14063 C0.984444824,2.62294385 1.32725458,2.15086029 1.73882,1.74268 C2.14992283,1.33062142 2.62312161,0.985604119 3.14116,0.72021 C3.66190467,0.457093603 4.21923545,0.273732545 4.79448,0.17627 C5.41467733,0.0748361385 6.04160084,0.0199960843 6.66999,0.01221 L7.57231,0 L110.34086,0 L111.25396,0.0127 C111.876633,0.0200991977 112.497862,0.0744500059 113.11236,0.17529 C113.693428,0.273975068 114.256567,0.458615534 114.78326,0.72314 C115.821078,1.25798605 116.665532,2.10416295 117.19826,3.14307 C117.458787,3.66257756 117.639229,4.21850676 117.73346,4.79199 C117.837249,5.41599138 117.895337,6.04673834 117.90726,6.6792 C117.91016,6.9624 117.91016,7.2666 117.91016,7.56934 C117.91806,7.94434 117.91806,8.30127 117.91806,8.66113 L117.91806,29.5898 C117.91806,29.9531 117.91806,30.3076 117.91016,30.665 C117.91016,30.9902 117.91016,31.2881 117.90626,31.5947 C117.894595,32.2158757 117.837476,32.8353642 117.73536,33.4482 C117.64205,34.0292612 117.45992,34.5925131 117.19536,35.1182 C116.931783,35.6306211 116.589039,36.0982662 116.17976,36.5039 C115.771241,36.9176846 115.298719,37.2629427 114.78036,37.5264 C114.255126,37.7923937 113.692816,37.9777403 113.11236,38.0762 C112.49424,38.177161 111.869425,38.2316802 111.24316,38.2393 C110.95026,38.2461 110.64356,38.25 110.34576,38.25 L109.26176,38.252 L7.57182,38.25 Z"></path>
                </g>
                <path d="M29.4705463,12.4092069 C28.0045338,11.7569466 26.4325313,11.2763902 24.7889056,11.0011546 C24.7589676,10.9958426 24.7290676,11.0091175 24.7136519,11.0356679 C24.5114799,11.384357 24.2875436,11.8392491 24.1307064,12.1967928 C22.3628807,11.9401469 20.6041409,11.9401469 18.872564,12.1967928 C18.7157078,11.831302 18.4836359,11.384357 18.2805516,11.0356679 C18.2651359,11.0100033 18.2352359,10.9967285 18.2052979,11.0011546 C16.5625846,11.2755103 14.990582,11.7560667 13.5237332,12.4092069 C13.5110357,12.4145161 13.5001439,12.4233748 13.4929208,12.4348713 C10.5111665,16.7546132 9.69433949,20.9681668 10.0950476,25.1294873 C10.0968608,25.14985 10.1086461,25.1693159 10.1249647,25.1817016 C12.0922398,26.5826514 13.9978944,27.4331746 15.8681366,27.9969022 C15.8980746,28.0057571 15.9297804,27.9951461 15.9488457,27.971234 C16.3912441,27.3853878 16.7856085,26.7676525 17.1237466,26.1180282 C17.1437053,26.079993 17.124659,26.0348403 17.0838672,26.0198018 C16.4583432,25.789704 15.8627002,25.5091479 15.2897341,25.1905566 C15.2444184,25.1648885 15.2407878,25.1020258 15.282492,25.0719302 C15.4030614,24.9843335 15.5236688,24.8931686 15.6387829,24.8011257 C15.6596159,24.7843126 15.6886416,24.7807631 15.7131432,24.7913928 C19.4772359,26.4578788 23.5523229,26.4578788 27.2719933,24.7913928 C27.2964949,24.7798851 27.3255206,24.7834345 27.347247,24.8002477 C27.4624181,24.8922906 27.5829875,24.9843335 27.7044693,25.0719302 C27.7461545,25.1020258 27.7434363,25.1648885 27.6981206,25.1905566 C27.1251544,25.5153314 26.5295114,25.789704 25.903075,26.0189238 C25.8622833,26.0339622 25.8441494,26.079993 25.8641081,26.1180282 C26.2094883,26.7667371 26.6038718,27.3844724 27.0381156,27.970356 C27.0562495,27.9951461 27.0888677,28.0057571 27.1188057,27.9969022 C28.9981338,27.4331746 30.9037695,26.5826514 32.8711249,25.1817016 C32.8882324,25.1693159 32.8990671,25.150728 32.9009679,25.1303654 C33.3805464,20.3194205 32.0976786,16.1404274 29.5003892,12.4357512 C29.4941165,12.4233748 29.4830917,12.4145161 29.4705463,12.4092069 Z M17.685859,22.5956836 C16.5526052,22.5956836 15.6188432,21.5867801 15.6188432,20.34776 C15.6188432,19.10874 16.5344904,18.0998365 17.685859,18.0998365 C18.8462566,18.0998365 19.7709897,19.117595 19.7528368,20.34776 C19.7528368,21.5867801 18.8371896,22.5956836 17.685859,22.5956836 Z M25.3283031,22.5956836 C24.1950874,22.5956836 23.2613063,21.5867801 23.2613063,20.34776 C23.2613063,19.10874 24.1769345,18.0998365 25.3283031,18.0998365 C26.4887387,18.0998365 27.4134338,19.117595 27.3953189,20.34776 C27.3953189,21.5867801 26.4887387,22.5956836 25.3283031,22.5956836 Z" id="Shape" fill="#FFFFFF"></path>
            </g>
            <path d="M41.5830078,14.1054688 C42.8266602,14.1054688 43.5605469,13.371582 43.5605469,12.1235352 L43.5605469,7.65869141 L42.5761719,7.65869141 L42.5761719,12.1147461 C42.5761719,12.8398438 42.2246094,13.2265625 41.5742188,13.2265625 C40.9853516,13.2265625 40.6821289,12.8486328 40.6425781,12.3652344 L40.6381836,12.3256836 L39.6669922,12.3256836 L39.6713867,12.378418 C39.7241211,13.3891602 40.409668,14.1054688 41.5830078,14.1054688 Z M46.6147461,14.0922852 C47.9375,14.0922852 48.8076172,13.1782227 48.8076172,11.6884766 L48.8076172,11.6796875 C48.8076172,10.1987305 47.9287109,9.2890625 46.6103516,9.2890625 C45.2963867,9.2890625 44.421875,10.203125 44.421875,11.6796875 L44.421875,11.6884766 C44.421875,13.1738281 45.2875977,14.0922852 46.6147461,14.0922852 Z M46.6191406,13.296875 C45.8764648,13.296875 45.3930664,12.7124023 45.3930664,11.6884766 L45.3930664,11.6796875 C45.3930664,10.6689453 45.8808594,10.0844727 46.6103516,10.0844727 C47.3530273,10.0844727 47.8364258,10.6689453 47.8364258,11.6796875 L47.8364258,11.6884766 C47.8364258,12.7080078 47.3618164,13.296875 46.6191406,13.296875 Z M50.0556641,8.66503906 C50.3676758,8.66503906 50.609375,8.41894531 50.609375,8.12011719 C50.609375,7.81689453 50.3676758,7.57080078 50.0556641,7.57080078 C49.7480469,7.57080078 49.5019531,7.81689453 49.5019531,8.12011719 C49.5019531,8.41894531 49.7480469,8.66503906 50.0556641,8.66503906 Z M50.5302734,14 L50.5302734,9.37695312 L49.5810547,9.37695312 L49.5810547,14 L50.5302734,14 Z M52.4594727,14 L52.4594727,11.3061523 C52.4594727,10.5854492 52.8901367,10.1020508 53.5581055,10.1020508 C54.2172852,10.1020508 54.5424805,10.4931641 54.5424805,11.1875 L54.5424805,14 L55.4960938,14 L55.4960938,11.0073242 C55.4960938,9.94384766 54.9116211,9.2890625 53.8964844,9.2890625 C53.1977539,9.2890625 52.7231445,9.60546875 52.4814453,10.0756836 L52.4594727,10.0756836 L52.4594727,9.37695312 L51.5102539,9.37695312 L51.5102539,14 L52.4594727,14 Z M59.8554688,14.0922852 C60.0488281,14.0922852 60.2290039,14.0703125 60.3388672,14.0527344 L60.3388672,13.3188477 C60.2685547,13.3276367 60.1850586,13.3364258 60.0839844,13.3364258 C59.684082,13.3364258 59.4731445,13.1958008 59.4731445,12.7255859 L59.4731445,10.1328125 L60.3388672,10.1328125 L60.3388672,9.37695312 L59.4731445,9.37695312 L59.4731445,8.17285156 L58.5019531,8.17285156 L58.5019531,9.37695312 L57.8383789,9.37695312 L57.8383789,10.1328125 L58.5019531,10.1328125 L58.5019531,12.7827148 C58.5019531,13.7055664 58.9414063,14.0922852 59.8554688,14.0922852 Z M62.1054688,14 L62.1054688,11.3237305 C62.1054688,10.6030273 62.5405273,10.1020508 63.1953125,10.1020508 C63.8632813,10.1020508 64.25,10.559082 64.25,11.3237305 L64.25,14 L65.1992188,14 L65.1992188,11.1435547 C65.1992188,10.0273438 64.5488281,9.2890625 63.5600586,9.2890625 C62.8701172,9.2890625 62.3735352,9.60107422 62.1274414,10.137207 L62.1054688,10.137207 L62.1054688,7.65869141 L61.15625,7.65869141 L61.15625,14 L62.1054688,14 Z M68.0908203,14.0922852 C69.2114258,14.0922852 69.9233398,13.4243164 70.0727539,12.6904297 L70.081543,12.6420898 L69.1806641,12.6420898 L69.1674805,12.6772461 C69.0488281,13.0244141 68.675293,13.3144531 68.112793,13.3144531 C67.3569336,13.3144531 66.8779297,12.8046875 66.8603516,11.9301758 L70.1342773,11.9301758 L70.1342773,11.609375 C70.1342773,10.2207031 69.3388672,9.2890625 68.0424805,9.2890625 C66.7460938,9.2890625 65.9111328,10.2558594 65.9111328,11.7016602 L65.9111328,11.7060547 C65.9111328,13.1650391 66.7329102,14.0922852 68.0908203,14.0922852 Z M69.1938477,11.2578125 L66.8735352,11.2578125 C66.9570313,10.484375 67.4316406,10.0668945 68.046875,10.0668945 C68.6665039,10.0668945 69.1147461,10.4580078 69.1938477,11.2578125 Z" id="Jointhe" fill="#FFFFFF"></path>
            <path d="M44.515625,29 C47.875,29 49.8515625,26.90625 49.8515625,23.34375 L49.8515625,23.328125 C49.8515625,19.78125 47.859375,17.7265625 44.515625,17.7265625 L40.5390625,17.7265625 L40.5390625,29 L44.515625,29 Z M44.3515625,27.484375 L42.2890625,27.484375 L42.2890625,19.234375 L44.3515625,19.234375 C46.7265625,19.234375 48.0625,20.6953125 48.0625,23.34375 L48.0625,23.359375 C48.0625,26.0234375 46.7421875,27.484375 44.3515625,27.484375 Z M52.234375,19.515625 C52.7890625,19.515625 53.21875,19.078125 53.21875,18.546875 C53.21875,18.0078125 52.7890625,17.5703125 52.234375,17.5703125 C51.6875,17.5703125 51.25,18.0078125 51.25,18.546875 C51.25,19.078125 51.6875,19.515625 52.234375,19.515625 Z M53.078125,29 L53.078125,20.78125 L51.390625,20.78125 L51.390625,29 L53.078125,29 Z M57.8984375,29.1640625 C59.8359375,29.1640625 61.2421875,28.1328125 61.2421875,26.6328125 L61.2421875,26.625 C61.2421875,25.4453125 60.6015625,24.78125 58.921875,24.390625 L57.5859375,24.0859375 C56.703125,23.875 56.3671875,23.53125 56.3671875,23.0234375 L56.3671875,23.015625 C56.3671875,22.359375 56.9375,21.9296875 57.84375,21.9296875 C58.796875,21.9296875 59.359375,22.4296875 59.4609375,23.1484375 L59.46875,23.203125 L61.0546875,23.203125 L61.046875,23.109375 C60.9609375,21.7109375 59.7890625,20.625 57.84375,20.625 C55.953125,20.625 54.671875,21.6328125 54.671875,23.1015625 L54.671875,23.109375 C54.671875,24.3046875 55.4453125,25.0546875 57.0078125,25.4140625 L58.3515625,25.71875 C59.234375,25.9296875 59.53125,26.234375 59.53125,26.765625 L59.53125,26.7734375 C59.53125,27.4375 58.921875,27.859375 57.90625,27.859375 C56.8671875,27.859375 56.3046875,27.4140625 56.1484375,26.65625 L56.1328125,26.578125 L54.4609375,26.578125 L54.46875,26.6484375 C54.640625,28.1484375 55.84375,29.1640625 57.8984375,29.1640625 Z M66.078125,29.1640625 C68.0546875,29.1640625 69.4296875,27.8984375 69.609375,26.25 L69.6171875,26.1953125 L67.9921875,26.1953125 L67.984375,26.2578125 C67.78125,27.1484375 67.1171875,27.75 66.078125,27.75 C64.7734375,27.75 63.90625,26.6953125 63.90625,24.8984375 L63.90625,24.890625 C63.90625,23.1328125 64.7578125,22.0390625 66.0703125,22.0390625 C67.171875,22.0390625 67.796875,22.71875 67.9765625,23.5234375 L67.9921875,23.5859375 L69.6015625,23.5859375 L69.59375,23.53125 C69.453125,21.984375 68.171875,20.625 66.0546875,20.625 C63.7109375,20.625 62.1796875,22.2734375 62.1796875,24.875 L62.1796875,24.8828125 C62.1796875,27.515625 63.6796875,29.1640625 66.078125,29.1640625 Z M74.34375,29.1640625 C76.6953125,29.1640625 78.2421875,27.5390625 78.2421875,24.890625 L78.2421875,24.875 C78.2421875,22.2421875 76.6796875,20.625 74.3359375,20.625 C72,20.625 70.4453125,22.25 70.4453125,24.875 L70.4453125,24.890625 C70.4453125,27.53125 71.984375,29.1640625 74.34375,29.1640625 Z M74.3515625,27.75 C73.03125,27.75 72.171875,26.7109375 72.171875,24.890625 L72.171875,24.875 C72.171875,23.078125 73.0390625,22.0390625 74.3359375,22.0390625 C75.65625,22.0390625 76.515625,23.078125 76.515625,24.875 L76.515625,24.890625 C76.515625,26.703125 75.671875,27.75 74.3515625,27.75 Z M81.234375,29 L81.234375,24.1015625 C81.234375,22.875 81.90625,22.1640625 82.9921875,22.1640625 C83.3203125,22.1640625 83.6171875,22.203125 83.75,22.2578125 L83.75,20.6875 C83.6171875,20.6640625 83.40625,20.625 83.1640625,20.625 C82.2265625,20.625 81.5390625,21.2265625 81.2734375,22.1875 L81.234375,22.1875 L81.234375,20.78125 L79.546875,20.78125 L79.546875,29 L81.234375,29 Z M87.8671875,29.1640625 C89.046875,29.1640625 89.953125,28.5703125 90.4453125,27.609375 L90.4765625,27.609375 L90.4765625,29 L92.171875,29 L92.171875,17.7265625 L90.4765625,17.7265625 L90.4765625,22.1796875 L90.4453125,22.1796875 C89.953125,21.2109375 89.015625,20.625 87.8515625,20.625 C85.7890625,20.625 84.4296875,22.265625 84.4296875,24.8828125 L84.4296875,24.890625 C84.4296875,27.5078125 85.7734375,29.1640625 87.8671875,29.1640625 Z M88.3125,27.7109375 C86.9765625,27.7109375 86.15625,26.640625 86.15625,24.890625 L86.15625,24.8828125 C86.15625,23.1484375 86.984375,22.0703125 88.3125,22.0703125 C89.578125,22.0703125 90.484375,23.1796875 90.484375,24.8828125 L90.484375,24.890625 C90.484375,26.6015625 89.5859375,27.7109375 88.3125,27.7109375 Z" fill="#FFFFFF"></path>
        </g>
    </g>
</svg>