<svg width="118" height="39" viewBox="0 0 118 39" fill="none" xmlns="http://www.w3.org/2000/svg">
<rect x="0.5" y="0.5" width="117" height="38" rx="6.5" fill="white"/>
<path d="M36.4238 13H37.449L39.5823 7.01099H38.5737L36.9717 11.8794H36.9011L35.2991 7.01099H34.2905L36.4238 13ZM40.9934 7.6875C41.3005 7.6875 41.5579 7.43433 41.5579 7.1272C41.5579 6.81592 41.3005 6.56274 40.9934 6.56274C40.6821 6.56274 40.429 6.81592 40.429 7.1272C40.429 7.43433 40.6821 7.6875 40.9934 7.6875ZM40.541 13H41.4375V8.49268H40.541V13ZM44.6416 13.0872C45.7954 13.0872 46.418 12.4231 46.5674 11.8296L46.5757 11.7922L45.7083 11.7964L45.6917 11.8296C45.5837 12.062 45.2393 12.3484 44.6624 12.3484C43.9194 12.3484 43.4463 11.8462 43.4297 10.9829H46.6255V10.6675C46.6255 9.31445 45.8535 8.40552 44.5959 8.40552C43.3384 8.40552 42.5249 9.34766 42.5249 10.7546V10.7588C42.5249 12.1865 43.3218 13.0872 44.6416 13.0872ZM44.6001 9.14429C45.2102 9.14429 45.6626 9.53442 45.7332 10.3396H43.4421C43.521 9.56348 43.9858 9.14429 44.6001 9.14429ZM48.5305 13H49.4478L50.3774 9.63818H50.448L51.3818 13H52.3074L53.5483 8.49268H52.656L51.8508 11.9707H51.7803L50.8506 8.49268H49.9956L49.0659 11.9707H48.9995L48.1902 8.49268H47.2854L48.5305 13ZM58.4333 13.0872C59.5042 13.0872 60.301 12.5186 60.301 11.6843V11.676C60.301 11.0244 59.886 10.655 59.0186 10.4517L58.3047 10.2898C57.7983 10.1694 57.5908 9.99512 57.5908 9.71289V9.70459C57.5908 9.34351 57.9478 9.09863 58.4417 9.09863C58.948 9.09863 59.2676 9.33521 59.3547 9.65063V9.65894H60.2139V9.65479C60.135 8.92017 59.4751 8.40552 58.4458 8.40552C57.4248 8.40552 56.6943 8.96997 56.6943 9.75439V9.75854C56.6943 10.4185 57.0886 10.8044 57.9395 10.9995L58.6575 11.1655C59.1804 11.2859 59.3921 11.4768 59.3921 11.759V11.7673C59.3921 12.1367 59.0061 12.3899 58.45 12.3899C57.9146 12.3899 57.5867 12.1616 57.4746 11.8213L57.4705 11.8171H56.5698V11.8213C56.657 12.5767 57.3459 13.0872 58.4333 13.0872ZM63.2852 13.0872C64.605 13.0872 65.4143 12.2031 65.4143 10.7505V10.7422C65.4143 9.28955 64.6008 8.40552 63.2852 8.40552C61.9653 8.40552 61.1519 9.2937 61.1519 10.7422V10.7505C61.1519 12.2031 61.9612 13.0872 63.2852 13.0872ZM63.2852 12.3359C62.509 12.3359 62.0732 11.7507 62.0732 10.7505V10.7422C62.0732 9.74194 62.509 9.15674 63.2852 9.15674C64.0571 9.15674 64.4971 9.74194 64.4971 10.7422V10.7505C64.4971 11.7466 64.0571 12.3359 63.2852 12.3359ZM67.9917 13.0872C68.6475 13.0872 69.104 12.8049 69.3198 12.3193H69.3904V13H70.2869V8.49268H69.3904V11.1365C69.3904 11.8628 69.0044 12.3152 68.2822 12.3152C67.6223 12.3152 67.3484 11.9458 67.3484 11.1987V8.49268H66.4478V11.4104C66.4478 12.4771 66.9749 13.0872 67.9917 13.0872ZM71.5859 13H72.4866V10.3064C72.4866 9.65479 72.9556 9.23145 73.6445 9.23145C73.8147 9.23145 73.9683 9.2522 74.1301 9.2854V8.45532C74.0388 8.43457 73.8811 8.41382 73.7358 8.41382C73.134 8.41382 72.7148 8.69604 72.553 9.17334H72.4866V8.49268H71.5859V13ZM76.7698 13.0872C77.8862 13.0872 78.5295 12.4854 78.6914 11.6096L78.6997 11.5723H77.8364L77.8281 11.593C77.6829 12.0786 77.3342 12.3359 76.7698 12.3359C76.0269 12.3359 75.5662 11.73 75.5662 10.7339V10.7256C75.5662 9.75439 76.0186 9.15674 76.7698 9.15674C77.3674 9.15674 77.7327 9.48877 77.8323 9.93286L77.8364 9.94531L78.6997 9.94116V9.92041C78.5752 9.04468 77.8987 8.40552 76.7656 8.40552C75.45 8.40552 74.6489 9.29785 74.6489 10.7256V10.7339C74.6489 12.1907 75.4541 13.0872 76.7698 13.0872ZM81.6133 13.0872C82.7671 13.0872 83.3896 12.4231 83.5391 11.8296L83.5474 11.7922L82.6799 11.7964L82.6633 11.8296C82.5554 12.062 82.2109 12.3484 81.634 12.3484C80.8911 12.3484 80.418 11.8462 80.4014 10.9829H83.5972V10.6675C83.5972 9.31445 82.8252 8.40552 81.5676 8.40552C80.3101 8.40552 79.4966 9.34766 79.4966 10.7546V10.7588C79.4966 12.1865 80.2935 13.0872 81.6133 13.0872ZM81.5718 9.14429C82.1819 9.14429 82.6343 9.53442 82.7048 10.3396H80.4138C80.4927 9.56348 80.9575 9.14429 81.5718 9.14429ZM88.9014 13.0872C90.2212 13.0872 91.0305 12.2031 91.0305 10.7505V10.7422C91.0305 9.28955 90.217 8.40552 88.9014 8.40552C87.5815 8.40552 86.7681 9.2937 86.7681 10.7422V10.7505C86.7681 12.2031 87.5774 13.0872 88.9014 13.0872ZM88.9014 12.3359C88.1252 12.3359 87.6895 11.7507 87.6895 10.7505V10.7422C87.6895 9.74194 88.1252 9.15674 88.9014 9.15674C89.6733 9.15674 90.1133 9.74194 90.1133 10.7422V10.7505C90.1133 11.7466 89.6733 12.3359 88.9014 12.3359ZM92.1055 13H93.0061V10.3562C93.0061 9.62988 93.417 9.17749 94.0769 9.17749C94.7368 9.17749 95.0481 9.54688 95.0481 10.2939V13H95.9446V10.0823C95.9446 9.00732 95.3884 8.40552 94.3799 8.40552C93.7241 8.40552 93.2925 8.69604 93.0725 9.17749H93.0061V8.49268H92.1055V13Z" fill="black"/>
<path d="M41.292 31.3154C42.1702 31.3154 42.965 31.1855 43.6763 30.9258C44.3875 30.6598 44.9967 30.2826 45.5039 29.7939C46.0111 29.2992 46.3976 28.7085 46.6636 28.022C46.9357 27.3293 47.0718 26.5562 47.0718 25.7026V24.0698H41.5703V25.749H45.0122V26.0366C45.006 26.7231 44.8483 27.3231 44.5391 27.8364C44.2298 28.3498 43.7969 28.7518 43.2402 29.0425C42.6898 29.327 42.0496 29.4692 41.3198 29.4692C40.689 29.4692 40.12 29.3517 39.6128 29.1167C39.1118 28.8755 38.682 28.5322 38.3232 28.0869C37.9707 27.6354 37.6986 27.0911 37.5068 26.4541C37.3151 25.8109 37.2192 25.0903 37.2192 24.2925V24.2739C37.2192 23.2287 37.3831 22.3226 37.7109 21.5557C38.0449 20.7826 38.515 20.1888 39.1211 19.7744C39.7272 19.3538 40.4447 19.1436 41.2734 19.1436C42.1888 19.1436 42.9526 19.3569 43.5649 19.7837C44.1834 20.2104 44.6133 20.8197 44.8545 21.6113L44.8823 21.7041H46.979L46.9604 21.6021C46.7996 20.7424 46.4626 19.9909 45.9492 19.3477C45.4421 18.7044 44.7896 18.2035 43.9917 17.8447C43.1938 17.4798 42.2878 17.2974 41.2734 17.2974C40.0241 17.2974 38.9355 17.585 38.0078 18.1602C37.0801 18.7354 36.3626 19.5456 35.8555 20.5908C35.3483 21.6361 35.0947 22.8669 35.0947 24.2832V24.3018C35.0947 25.3779 35.237 26.349 35.5215 27.2148C35.8122 28.0745 36.2266 28.8105 36.7646 29.4229C37.3089 30.0352 37.9614 30.5052 38.7222 30.833C39.4829 31.1546 40.3395 31.3154 41.292 31.3154ZM49.6509 31H51.6733V20.9526H49.6509V31ZM50.6714 19.1807C51.0177 19.1807 51.3115 19.0601 51.5527 18.8188C51.8001 18.5715 51.9238 18.2746 51.9238 17.9282C51.9238 17.5819 51.8001 17.2881 51.5527 17.0469C51.3115 16.8057 51.0177 16.6851 50.6714 16.6851C50.325 16.6851 50.0282 16.8057 49.7808 17.0469C49.5334 17.2881 49.4097 17.5819 49.4097 17.9282C49.4097 18.2746 49.5334 18.5715 49.7808 18.8188C50.0282 19.0601 50.325 19.1807 50.6714 19.1807ZM58.2881 31.0742C58.486 31.0742 58.6777 31.0618 58.8633 31.0371C59.0488 31.0186 59.2189 30.9969 59.3735 30.9722V29.3672C59.2375 29.3796 59.1169 29.3919 59.0117 29.4043C58.9066 29.4105 58.7798 29.4136 58.6313 29.4136C58.1427 29.4136 57.7871 29.2961 57.5645 29.061C57.348 28.8198 57.2397 28.4333 57.2397 27.9014V22.5483H59.3735V20.9526H57.2397V18.4199H55.1802V20.9526H53.6216V22.5483H55.1802V28.356C55.1802 29.3208 55.4245 30.0166 55.9131 30.4434C56.4079 30.8639 57.1995 31.0742 58.2881 31.0742ZM61.8877 31H63.9751V25.0718H70.8403V31H72.9277V17.6128H70.8403V23.272H63.9751V17.6128H61.8877V31ZM79.3198 31.1948C79.8084 31.1948 80.2445 31.1268 80.6279 30.9907C81.0176 30.8547 81.3516 30.6598 81.6299 30.4062C81.9082 30.1465 82.1278 29.8372 82.2886 29.4785H82.437V31H84.4502V20.9526H82.437V26.8438C82.437 27.2458 82.3844 27.6076 82.2793 27.9292C82.1742 28.2508 82.0164 28.526 81.8062 28.7549C81.5959 28.9837 81.3392 29.16 81.0361 29.2837C80.7331 29.4012 80.3805 29.46 79.9785 29.46C79.2487 29.46 78.7168 29.2559 78.3828 28.8477C78.055 28.4333 77.8911 27.8148 77.8911 26.9922V20.9526H75.8779V27.4561C75.8779 28.2477 76.0078 28.9219 76.2676 29.4785C76.5273 30.0352 76.9108 30.4619 77.418 30.7588C77.9313 31.0495 78.5653 31.1948 79.3198 31.1948ZM92.6143 31.1763C93.4616 31.1763 94.1945 30.9629 94.813 30.5361C95.4377 30.1094 95.9201 29.5094 96.2603 28.7363C96.6066 27.957 96.7798 27.0386 96.7798 25.981V25.9624C96.7798 24.9048 96.6097 23.9894 96.2695 23.2163C95.9294 22.437 95.4469 21.8371 94.8223 21.4165C94.1976 20.9897 93.4616 20.7764 92.6143 20.7764C92.1504 20.7764 91.7174 20.8506 91.3154 20.999C90.9134 21.1413 90.5578 21.3454 90.2485 21.6113C89.9455 21.8711 89.7012 22.1865 89.5156 22.5576H89.3765V17.0283H87.354V31H89.3765V29.4043H89.5156C89.7135 29.7754 89.964 30.0939 90.2671 30.3599C90.5701 30.6196 90.9196 30.8206 91.3154 30.9629C91.7113 31.1051 92.1442 31.1763 92.6143 31.1763ZM92.0391 29.4414C91.4886 29.4414 91.0093 29.3022 90.6011 29.0239C90.1991 28.7456 89.8867 28.3467 89.6641 27.8271C89.4476 27.3076 89.3394 26.6922 89.3394 25.981V25.9717C89.3394 25.2542 89.4476 24.6388 89.6641 24.1255C89.8867 23.606 90.1991 23.207 90.6011 22.9287C91.0093 22.6442 91.4886 22.502 92.0391 22.502C92.6019 22.502 93.0812 22.6411 93.4771 22.9194C93.8791 23.1978 94.1852 23.5967 94.3955 24.1162C94.612 24.6296 94.7202 25.245 94.7202 25.9624V25.981C94.7202 26.6984 94.612 27.3169 94.3955 27.8364C94.1852 28.356 93.8791 28.7549 93.4771 29.0332C93.0812 29.3053 92.6019 29.4414 92.0391 29.4414Z" fill="black"/>
<path d="M18.5 9C12.7023 9 8 13.5907 8 19.2528C8 23.7828 11.0082 27.6259 15.1811 28.9819C15.7052 29.0767 15.875 28.7589 15.875 28.4889V26.5801C12.9542 27.2004 12.3461 25.3703 12.3461 25.3703C11.8684 24.1853 11.1798 23.87 11.1798 23.87C10.2269 23.2335 11.2524 23.2471 11.2524 23.2471C12.3068 23.3189 12.8615 24.304 12.8615 24.304C13.7978 25.871 15.3176 25.4182 15.917 25.1559C16.0106 24.4937 16.2828 24.0409 16.5838 23.7854C14.2519 23.5248 11.8001 22.6456 11.8001 18.7179C11.8001 17.5978 12.2105 16.6836 12.8816 15.9659C12.7731 15.707 12.4135 14.6638 12.984 13.2524C12.984 13.2524 13.866 12.9772 15.8724 14.3033C16.7097 14.076 17.6075 13.9624 18.5 13.9581C19.3925 13.9624 20.2911 14.076 21.1302 14.3033C23.1349 12.9772 24.0151 13.2524 24.0151 13.2524C24.5865 14.6647 24.2269 15.7079 24.1184 15.9659C24.7921 16.6836 25.199 17.5987 25.199 18.7179C25.199 22.6559 22.7429 23.5231 20.4049 23.7769C20.7811 24.0947 21.125 24.7184 21.125 25.6753V28.4889C21.125 28.7614 21.293 29.0818 21.8259 28.981C25.9952 27.6234 29 23.7811 29 19.2528C29 13.5907 24.2986 9 18.5 9Z" fill="black"/>
<rect x="0.5" y="0.5" width="117" height="38" rx="6.5" stroke="black"/>
</svg>
